<mxfile host="app.diagrams.net" agent="Mozilla/5.0 (Windows NT 10.0; Win64; x64) AppleWebKit/537.36 (KHTML, like Gecko) Chrome/127.0.0.0 Safari/537.36" version="24.7.7">
  <diagram name="Página-1" id="mIqUGU3oBC_AaJJc5hnu">
    <mxGraphModel grid="1" page="1" gridSize="10" guides="1" tooltips="1" connect="1" arrows="1" fold="1" pageScale="1" pageWidth="827" pageHeight="1169" math="0" shadow="0">
      <root>
        <mxCell id="0" />
        <mxCell id="1" parent="0" />
        <mxCell id="lKmpcnNSKkCsuCaqbkay-1" style="edgeStyle=orthogonalEdgeStyle;rounded=0;orthogonalLoop=1;jettySize=auto;html=1;exitX=0.5;exitY=1;exitDx=0;exitDy=0;entryX=0.5;entryY=0;entryDx=0;entryDy=0;" edge="1" parent="1" source="lKmpcnNSKkCsuCaqbkay-2" target="lKmpcnNSKkCsuCaqbkay-4">
          <mxGeometry relative="1" as="geometry" />
        </mxCell>
        <mxCell id="lKmpcnNSKkCsuCaqbkay-2" value="&lt;span style=&quot;color: rgb(26, 26, 26); background-color: transparent;&quot;&gt;INICIO&lt;/span&gt;" style="ellipse;whiteSpace=wrap;html=1;" vertex="1" parent="1">
          <mxGeometry x="354" y="120" width="120" height="80" as="geometry" />
        </mxCell>
        <mxCell id="lKmpcnNSKkCsuCaqbkay-3" value="" style="edgeStyle=orthogonalEdgeStyle;rounded=0;orthogonalLoop=1;jettySize=auto;html=1;" edge="1" parent="1" source="lKmpcnNSKkCsuCaqbkay-4" target="lKmpcnNSKkCsuCaqbkay-6">
          <mxGeometry relative="1" as="geometry" />
        </mxCell>
        <mxCell id="lKmpcnNSKkCsuCaqbkay-4" value="&lt;div&gt;&lt;font color=&quot;#1a1a1a&quot;&gt;Recibe el Largo (L), Ancho (A),&amp;nbsp;&lt;/font&gt;&lt;span style=&quot;color: rgb(26, 26, 26); background-color: initial;&quot;&gt;Profundidad (P)&lt;/span&gt;&lt;/div&gt;" style="shape=parallelogram;perimeter=parallelogramPerimeter;whiteSpace=wrap;html=1;fixedSize=1;" vertex="1" parent="1">
          <mxGeometry x="270" y="260" width="184" height="60" as="geometry" />
        </mxCell>
        <mxCell id="lKmpcnNSKkCsuCaqbkay-21" style="edgeStyle=orthogonalEdgeStyle;rounded=0;orthogonalLoop=1;jettySize=auto;html=1;entryX=0.5;entryY=0;entryDx=0;entryDy=0;" edge="1" parent="1" source="lKmpcnNSKkCsuCaqbkay-6" target="lKmpcnNSKkCsuCaqbkay-14">
          <mxGeometry relative="1" as="geometry" />
        </mxCell>
        <mxCell id="lKmpcnNSKkCsuCaqbkay-6" value="&lt;font color=&quot;#1a1a1a&quot;&gt;&amp;nbsp;Calcular Volumen:&amp;nbsp;Volumen = L * A * P&lt;/font&gt;" style="rounded=0;whiteSpace=wrap;html=1;" vertex="1" parent="1">
          <mxGeometry x="360" y="370" width="183" height="60" as="geometry" />
        </mxCell>
        <mxCell id="lKmpcnNSKkCsuCaqbkay-7" value="" style="edgeStyle=orthogonalEdgeStyle;rounded=0;orthogonalLoop=1;jettySize=auto;html=1;" edge="1" parent="1" source="lKmpcnNSKkCsuCaqbkay-8" target="lKmpcnNSKkCsuCaqbkay-9">
          <mxGeometry relative="1" as="geometry" />
        </mxCell>
        <mxCell id="lKmpcnNSKkCsuCaqbkay-8" value="&lt;font color=&quot;#1a1a1a&quot;&gt;Mostrar Costo Total&amp;nbsp;&lt;/font&gt;" style="shape=parallelogram;perimeter=parallelogramPerimeter;whiteSpace=wrap;html=1;fixedSize=1;" vertex="1" parent="1">
          <mxGeometry x="270" y="670" width="184" height="60" as="geometry" />
        </mxCell>
        <mxCell id="lKmpcnNSKkCsuCaqbkay-9" value="&lt;span style=&quot;color: rgb(26, 26, 26); background-color: transparent;&quot;&gt;FIN&lt;/span&gt;" style="ellipse;whiteSpace=wrap;html=1;" vertex="1" parent="1">
          <mxGeometry x="354" y="790" width="120" height="80" as="geometry" />
        </mxCell>
        <mxCell id="lKmpcnNSKkCsuCaqbkay-10" style="edgeStyle=orthogonalEdgeStyle;rounded=0;orthogonalLoop=1;jettySize=auto;html=1;entryX=0;entryY=0.5;entryDx=0;entryDy=0;endArrow=none;endFill=0;curved=1;" edge="1" parent="1" source="lKmpcnNSKkCsuCaqbkay-11" target="lKmpcnNSKkCsuCaqbkay-2">
          <mxGeometry relative="1" as="geometry" />
        </mxCell>
        <mxCell id="lKmpcnNSKkCsuCaqbkay-11" value="&lt;span style=&quot;color: rgb(26, 26, 26);&quot;&gt;MARCA EL COMIENSO DEL PROCESO&lt;/span&gt;" style="text;html=1;align=center;verticalAlign=middle;whiteSpace=wrap;rounded=0;" vertex="1" parent="1">
          <mxGeometry x="160" y="160" width="110" height="80" as="geometry" />
        </mxCell>
        <mxCell id="lKmpcnNSKkCsuCaqbkay-12" style="edgeStyle=orthogonalEdgeStyle;rounded=0;orthogonalLoop=1;jettySize=auto;html=1;entryX=0;entryY=0.5;entryDx=0;entryDy=0;curved=1;endArrow=none;endFill=0;" edge="1" parent="1" source="lKmpcnNSKkCsuCaqbkay-13" target="lKmpcnNSKkCsuCaqbkay-9">
          <mxGeometry relative="1" as="geometry" />
        </mxCell>
        <mxCell id="lKmpcnNSKkCsuCaqbkay-13" value="&lt;span style=&quot;color: rgb(26, 26, 26); background-color: transparent;&quot;&gt;MARCA EL FINAL DEL PROCESO&lt;/span&gt;" style="text;html=1;align=center;verticalAlign=middle;whiteSpace=wrap;rounded=0;" vertex="1" parent="1">
          <mxGeometry x="160" y="750" width="110" height="80" as="geometry" />
        </mxCell>
        <mxCell id="lKmpcnNSKkCsuCaqbkay-20" style="edgeStyle=orthogonalEdgeStyle;rounded=0;orthogonalLoop=1;jettySize=auto;html=1;" edge="1" parent="1" source="lKmpcnNSKkCsuCaqbkay-14" target="lKmpcnNSKkCsuCaqbkay-15">
          <mxGeometry relative="1" as="geometry" />
        </mxCell>
        <mxCell id="lKmpcnNSKkCsuCaqbkay-14" value="&lt;span style=&quot;color: rgb(26, 26, 26);&quot;&gt;Convertir Volumen a&amp;nbsp;Metros Cúbicos (si es necesario)&lt;/span&gt;" style="rounded=0;whiteSpace=wrap;html=1;" vertex="1" parent="1">
          <mxGeometry x="271" y="470" width="183" height="60" as="geometry" />
        </mxCell>
        <mxCell id="lKmpcnNSKkCsuCaqbkay-19" style="edgeStyle=orthogonalEdgeStyle;rounded=0;orthogonalLoop=1;jettySize=auto;html=1;entryX=0.5;entryY=0;entryDx=0;entryDy=0;" edge="1" parent="1" source="lKmpcnNSKkCsuCaqbkay-15" target="lKmpcnNSKkCsuCaqbkay-8">
          <mxGeometry relative="1" as="geometry" />
        </mxCell>
        <mxCell id="lKmpcnNSKkCsuCaqbkay-15" value="&lt;font color=&quot;#1a1a1a&quot;&gt;Calcular Costo:&amp;nbsp;Costo = Volumen * T&lt;/font&gt;" style="rounded=0;whiteSpace=wrap;html=1;" vertex="1" parent="1">
          <mxGeometry x="360" y="570" width="183" height="60" as="geometry" />
        </mxCell>
      </root>
    </mxGraphModel>
  </diagram>
</mxfile>
